<svg version="1.0" xmlns="http://www.w3.org/2000/svg" width="133.333" height="133.333" viewBox="0 0 100 100"><path d="M34.8 1.9C13.4 8.8 0 27.3 0 50c0 28.7 21.3 50 50 50s50-21.3 50-50c0-22.7-13.6-41.5-34.9-48-8.3-2.6-22.3-2.6-30.3-.1zM28 34.6v8.5l2.6-2c3.8-3 10.3-2.8 13.7.3 3.1 2.9 3.9 7.7 3.5 20.1l-.3 9h-8L39.2 59c-.2-9.4-.6-11.7-1.9-12.8-2.5-1.8-4.1-1.5-6.8 1.3-2.3 2.3-2.5 3.1-2.5 13V71h-8V26h8v8.6zm31.8-.3l.3 7.7 2.9-1.5c4.8-2.5 9.7-1.9 13.1 1.4l2.9 2.9V71h-8V59.6c0-9.1-.3-11.8-1.6-13-1.9-2-4.4-2-7-.2-1.6 1.2-2 3-2.4 12.8l-.5 11.3h-8l-.3-21c-.1-11.5 0-21.5.3-22.3.3-.9 1.8-1.2 4.2-1l3.8.3.3 7.8z " fill="#FF0000"/></svg>